<?xml version="1.0" encoding="UTF-8" standalone="no"?><!DOCTYPE svg PUBLIC "-//W3C//DTD SVG 1.1//EN" "http://www.w3.org/Graphics/SVG/1.1/DTD/svg11.dtd"><svg width="100%" height="100%" viewBox="0 0 1920 1080" version="1.1" xmlns="http://www.w3.org/2000/svg" xmlns:xlink="http://www.w3.org/1999/xlink" xml:space="preserve" xmlns:serif="http://www.serif.com/" style="fill-rule:evenodd;clip-rule:evenodd;stroke-linejoin:round;stroke-miterlimit:2;"><g><rect x="0" y="0.156" width="1920" height="1080" style="fill:#24424d;"/><g><g id="Red"><path d="M1148.94,403.441l46.673,0l-0,15.837l31.712,0l0,25.123l31.216,-0l0,26.311l25.043,0l0,58.095l-51.128,0l0,25.42l25.524,0l0,25.464l26.203,-0l-0,31.536l-30.701,-0l-0,-25.444l-20.751,-0l0,24.692l-36.413,0l0,-24.561l-46.567,0l-0,25.346l-36.151,0l-0,-25.299l-20.316,0l0,25.596l-31.235,0l0,-31.366l24.886,0l-0,-25.964l25.603,0l-0,-25.508l-51.19,-0l-0,-57.373l25.514,0l0,-26.027l30.767,-0l0,-25.858l31.346,-0l-0.035,-16.02Z" style="fill:#be2c53;"/><rect x="1117.78" y="471.277" width="25.921" height="25.921" style="fill:#24424d;"/><rect x="1201.14" y="471.277" width="25.921" height="25.921" style="fill:#24424d;"/><rect x="1201.14" y="554.472" width="25.921" height="25.921" style="fill:#24424d;"/><rect x="1118.03" y="554.472" width="25.921" height="25.921" style="fill:#24424d;"/><rect x="1146.85" y="528.551" width="51.843" height="25.921" style="fill:#24424d;"/></g><g id="Gelb"><path d="M347.986,502.857l-30.591,-0l0,81.137l31.043,0l-0,-50.432l25.126,0l-0,50.732l25.714,-0l0,25.719l46.273,0l0,-30.496l-45.897,0l-0,-20.546l121.894,-0l0,20.287l-45.543,0l-0,30.588l50.911,0l0,-25.164l25.284,0l0,-51.085l25.497,-0l0,51.171l25.58,-0l-0,-81.856l-25.269,-0l-0,-25.424l-25.582,0l0,-25.524l-25.734,-0l-0,-25.457l25.606,0l0,-25.578l-30.068,0l-0,20.012l-26.265,-0l0,30.744l-65.853,-0l-0,-30.297l-30.255,-0l-0,-20.634l-31.339,-0l-0,25.589l30.47,-0l-0,25.595l-30.442,0l0,25.257l-20.562,-0l0.002,25.662Z" style="fill:#f1b33c;"/><rect x="399.092" y="477.357" width="25.502" height="25.502" style="fill:#24424d;"/><rect x="501.074" y="477.357" width="25.502" height="25.502" style="fill:#24424d;"/></g><g id="Blau"><path d="M719.638,474.035l0,-51.051l-31.289,-0l0,107.982l30.63,-0l-0,25.132l25.79,-0l-0,20.922l-25.531,0l0,30.197l25.435,0l0,-25.294l30.069,0l-0,-25.425l122.846,0l-0,24.991l21.293,-0l-0,25.563l30.241,-0l-0,-29.641l-25.512,-0l0,-21.557l25.549,-0l-0,-25.273l26.743,0l0,-107.281l-26.201,0l0,49.853l-26.091,-0l0,-24.566l-20.233,0l0,-21.099l20.233,0l0,-24.853l-24.942,-0l0,20.211l-21.265,0l-0,25.767l-80.541,-0l-0,-25.315l-20.392,0l-0,-21.401l-31.577,0l0,25.792l24.834,-0l-0,20.593l-25.08,-0c-0,-0 -0,25.514 0.129,25.708c-0.129,-0.194 -25.138,0.045 -25.138,0.045Z" style="fill:#056bf1;"/><rect x="770.513" y="473.974" width="25.602" height="25.602" style="fill:#24424d;"/><rect x="873.997" y="473.974" width="25.602" height="25.602" style="fill:#24424d;"/></g><g id="Grün"><path d="M1430.8,532.075l-56.623,-0.008l0,-77.518l21.529,0l-0,-26.483l55.932,0l-0,-24.625l71.978,0l-0,24.413l57.259,-0l0,26.018l21.07,0l-0,78.001l-57.141,-0l0,25.518l20.511,0l-0,25.934l37.269,0l-0,26.037l-41.623,-0l0,-25.288l-36.023,0l-0,-21.745l-16.464,0l-0,20.711l-41.342,0l0,-20.294l-16.054,-0l0,20.709l-35.533,0l-0,25.622l-46.159,-0l-0,-24.702l40.271,-0l0,-26.398l21.092,-0l0.051,-25.902Z" style="fill:#04bf68;"/><rect x="1430.84" y="480.055" width="36.198" height="25.9" style="fill:#24424d;"/><rect x="1508.87" y="480.055" width="36.198" height="25.9" style="fill:#24424d;"/><rect x="1467.04" y="531.578" width="41.44" height="25.9" style="fill:#24424d;"/></g></g></g></svg>